<svg xmlns="http://www.w3.org/2000/svg" viewBox="0 0 900 1020" role="img" aria-labelledby="title desc">
  <title id="title">Logo Fundación N.A.H.U.E.L.</title>
  <desc id="desc">Versión vectorial simplificada del logo de Fundación N.A.H.U.E.L. con mano lineal, marco verde y texto cobre.</desc>
  <rect width="900" height="1020" fill="#f4efe5"/>
  <rect x="42" y="42" width="816" height="936" rx="20" fill="none" stroke="#33483a" stroke-width="26"/>
  <path d="M315 690c30-55 32-125 12-169-18-40-62-90-91-145-43-80-72-150-53-164 20-15 111 84 145 127 16 20 34 20 31-11-6-66-21-180 4-194 28-15 61 89 70 151 4 28 29 31 34 2 13-76 27-183 57-180 32 4 44 123 45 188 1 30 29 35 41 8 29-65 77-165 106-148 22 13-1 126-21 199-8 31 16 43 38 18 47-53 135-125 151-105 16 21-47 108-98 179-35 48-81 88-92 142-12 58-4 121 20 166 14 26 33 35 64 35h94v28H644c-44 0-73-22-92-61-24-50-34-127-19-197 13-63 60-105 98-157 20-28 53-74 71-104-34 21-83 65-121 110-35 41-86 22-73-32 16-70 33-145 31-185-28 39-61 117-79 171-16 47-83 42-88-12-5-61-13-140-28-173-12 40-22 111-31 164-9 51-77 51-90 3-15-55-43-125-61-149-3 45 10 122 12 171 2 53-55 70-87 29-31-40-72-86-101-113 17 43 45 98 77 156 29 52 68 99 86 142 25 59 19 139-13 199-19 35-45 52-88 52H31v-28h206c35 0 57-10 78-48z" fill="none" stroke="#33483a" stroke-width="22" stroke-linecap="round" stroke-linejoin="round"/>
  <rect x="42" y="720" width="816" height="258" rx="14" fill="#f4efe5" stroke="#33483a" stroke-width="22"/>
  <text x="450" y="858" text-anchor="middle" font-family="Arial Black, Archivo, sans-serif" font-size="132" font-weight="900" fill="#b45b2e" letter-spacing="6">N.A.H.U.E.L</text>
  <text x="450" y="921" text-anchor="middle" font-family="Arial Black, Archivo, sans-serif" font-size="34" font-weight="900" fill="#b45b2e" letter-spacing="1">ARTE TERRITORIO Y BIENESTAR REGENERATIVO</text>
</svg>
